<svg width="15" height="10" viewBox="0 0 15 10" fill="none" xmlns="http://www.w3.org/2000/svg">
<path d="M7.5 9.99927C3.36445 9.99927 0 7.75647 0 4.99963C0 2.2428 3.36445 0 7.5 0C11.6356 0 15 2.2428 15 4.99963C15 7.75647 11.6356 9.99927 7.5 9.99927ZM7.5 0.650407C3.90251 0.650407 0.975737 2.60145 0.975737 4.99963C0.975737 7.39782 3.90251 9.34882 7.5 9.34882C11.0975 9.34882 14.0243 7.39778 14.0243 4.99963C14.0243 2.60148 11.0975 0.650407 7.5 0.650407Z" fill="black"/>
<path d="M10.5598 4.18526C10.3327 4.282 10.0311 4.2378 9.88586 4.08653C9.41458 3.59533 8.61182 3.30207 7.73849 3.30207C6.33408 3.30207 5.19155 4.06377 5.19155 5C5.19155 5.93623 6.33408 6.69793 7.73849 6.69793C8.58591 6.69793 9.37555 6.41797 9.85084 5.94906C10.0016 5.80029 10.3048 5.76111 10.5282 5.86168C10.7514 5.96222 10.8101 6.1644 10.6593 6.31325C10.0024 6.96144 8.91045 7.34839 7.73849 7.34839C5.79607 7.34839 4.21582 6.29493 4.21582 5C4.21582 3.70507 5.79607 2.65161 7.73849 2.65161C8.94628 2.65161 10.0563 3.05699 10.7079 3.73604C10.853 3.88735 10.7867 4.08845 10.5598 4.18526Z" fill="black"/>
</svg>
