<svg width="50" height="316" viewBox="0 0 50 316" fill="none" xmlns="http://www.w3.org/2000/svg">
<circle cx="5.90041" cy="310.1" r="5.90042" transform="rotate(-90 5.90041 310.1)" fill="#E6E6E6"/>
<circle cx="43.9256" cy="310.1" r="5.90042" transform="rotate(-90 43.9256 310.1)" fill="#E6E6E6"/>
<circle cx="5.90041" cy="158" r="5.90042" transform="rotate(-90 5.90041 158)" fill="#E6E6E6"/>
<circle cx="43.9251" cy="158" r="5.90042" transform="rotate(-90 43.9251 158)" fill="#E6E6E6"/>
<circle cx="5.90041" cy="5.9004" r="5.90042" transform="rotate(-90 5.90041 5.9004)" fill="#E6E6E6"/>
<circle cx="43.9251" cy="5.9004" r="5.90042" transform="rotate(-90 43.9251 5.9004)" fill="#E6E6E6"/>
<circle cx="5.90041" cy="234.05" r="5.90042" transform="rotate(-90 5.90041 234.05)" fill="#E6E6E6"/>
<circle cx="43.9251" cy="234.05" r="5.90042" transform="rotate(-90 43.9251 234.05)" fill="#E6E6E6"/>
<circle cx="5.90041" cy="81.9502" r="5.90042" transform="rotate(-90 5.90041 81.9502)" fill="#E6E6E6"/>
<circle cx="43.9251" cy="81.9502" r="5.90042" transform="rotate(-90 43.9251 81.9502)" fill="#E6E6E6"/>
<circle cx="5.90041" cy="272.075" r="5.90042" transform="rotate(-90 5.90041 272.075)" fill="#E6E6E6"/>
<circle cx="43.9251" cy="272.075" r="5.90042" transform="rotate(-90 43.9251 272.075)" fill="#E6E6E6"/>
<circle cx="5.90041" cy="119.975" r="5.90042" transform="rotate(-90 5.90041 119.975)" fill="#E6E6E6"/>
<circle cx="43.9251" cy="119.975" r="5.90042" transform="rotate(-90 43.9251 119.975)" fill="#E6E6E6"/>
<circle cx="5.90041" cy="196.025" r="5.90042" transform="rotate(-90 5.90041 196.025)" fill="#E6E6E6"/>
<circle cx="43.9251" cy="196.025" r="5.90042" transform="rotate(-90 43.9251 196.025)" fill="#E6E6E6"/>
<circle cx="5.90041" cy="43.9253" r="5.90042" transform="rotate(-90 5.90041 43.9253)" fill="#E6E6E6"/>
<circle cx="43.9251" cy="43.9253" r="5.90042" transform="rotate(-90 43.9251 43.9253)" fill="#E6E6E6"/>
</svg>
