<svg width="15" height="15" viewBox="0 0 15 15" fill="none" xmlns="http://www.w3.org/2000/svg">
<path d="M7.5 14.4258C3.36445 14.4258 0 11.1901 0 7.21289C0 3.23565 3.36445 0 7.5 0C11.6356 0 15 3.23565 15 7.21289C15 11.1901 11.6356 14.4258 7.5 14.4258ZM7.5 0.938332C3.90251 0.938332 0.975737 3.75307 0.975737 7.21289C0.975737 10.6727 3.90251 13.4874 7.5 13.4874C11.0975 13.4874 14.0243 10.6727 14.0243 7.21289C14.0243 3.75312 11.0975 0.938332 7.5 0.938332Z" fill="black"/>
<path d="M10.5595 6.03741C10.3325 6.17698 10.0308 6.11321 9.88561 5.89497C9.41433 5.18627 8.61158 4.76318 7.73824 4.76318C6.33384 4.76318 5.19131 5.86212 5.19131 7.21289C5.19131 8.56366 6.33384 9.66261 7.73824 9.66261C8.58566 9.66261 9.3753 9.2587 9.85059 8.58217C10.0014 8.36752 10.3046 8.311 10.528 8.4561C10.7512 8.60115 10.8099 8.89285 10.659 9.10761C10.0022 10.0428 8.9102 10.6011 7.73824 10.6011C5.79583 10.6011 4.21558 9.08117 4.21558 7.21289C4.21558 5.34461 5.79583 3.82471 7.73824 3.82471C8.94603 3.82471 10.0561 4.40958 10.7076 5.38929C10.8528 5.60759 10.7865 5.89773 10.5595 6.03741Z" fill="black"/>
</svg>
